<svg xmlns="http://www.w3.org/2000/svg" xmlns:xlink="http://www.w3.org/1999/xlink" viewBox="0 0 285.14 103.09"><defs><style>.cls-1{fill:none;}.cls-2{clip-path:url(#clip-path);}.cls-3{fill:url(#linear-gradient);}.cls-4{clip-path:url(#clip-path-2);}.cls-5{fill:url(#linear-gradient-2);}.cls-6{fill:#9da7b7;}.cls-7{fill:#9aa5b5;}.cls-8{fill:#ed2024;}</style><clipPath id="clip-path"><path class="cls-1" d="M13.59,6C0,19.61,10.59,72.47,33.71,72.26c15.07-.13,17.08-13.12,20.51-22.79,3.81-10.72,23.08-6,26.66-18.76,2.68-9.53-8.82-17.42-19.1-17.25-10.72.17-13.61,11.9-16.34,22.66-3,11.77-12.49,15.67-18.8,10C19.79,40,20.55,22.82,34.72,18,48.2,13.46,49.6,4,39.22,1.38A42,42,0,0,0,29.17,0c-5.44,0-11,1.46-15.58,6"/></clipPath><linearGradient id="linear-gradient" x1="-147.25" y1="470.51" x2="-146.25" y2="470.51" gradientTransform="matrix(73.7, 0, 0, -73.7, 10860.63, 34714.43)" gradientUnits="userSpaceOnUse"><stop offset="0" stop-color="#f16922"/><stop offset="1" stop-color="#ea9439"/></linearGradient><clipPath id="clip-path-2"><path class="cls-1" d="M26.64,46.13l-.08-.08.08.08m-.08-.08c-6.76-6.21-5.95-23.25,8.16-28C48.2,13.46,49.6,4,39.22,1.38a33,33,0,0,0-6.54-.7c-23.82,0-20.75,32-6.12,45.37"/></clipPath><linearGradient id="linear-gradient-2" x1="-147.25" y1="470.51" x2="-146.25" y2="470.51" gradientTransform="matrix(30.88, 0, 0, -30.88, 4562.4, 14552.94)" gradientUnits="userSpaceOnUse"><stop offset="0" stop-color="#3f5473"/><stop offset="0.97" stop-color="#1e3160"/><stop offset="1" stop-color="#1e3160"/></linearGradient></defs><title>logo-color</title><g id="Layer_2" data-name="Layer 2"><g id="Art_1" data-name="Art 1"><g class="cls-2"><rect class="cls-3" width="83.56" height="72.47"/></g><g class="cls-4"><rect class="cls-5" x="8.86" y="0.68" width="40.75" height="45.45"/></g><path class="cls-6" d="M78.23,20.43c-12.94-10-19.5,13.87-24,29,3.81-10.72,23.08-6,26.66-18.76a10.81,10.81,0,0,0-2.65-10.28"/><path class="cls-7" d="M104.31,25.84v18.1a5.15,5.15,0,0,0,5.43,5.43,5.25,5.25,0,0,0,3.91-1.5,5.37,5.37,0,0,0,1.47-3.93V25.84h6.56V54.12h-6.56V48a9.61,9.61,0,0,1-3.28,4.9,8.84,8.84,0,0,1-5.55,1.78,8.16,8.16,0,0,1-6.19-2.46,9,9,0,0,1-2.35-6.48V25.84Z"/><path class="cls-7" d="M146.51,54.12V36a5.29,5.29,0,0,0-1.5-4,5.37,5.37,0,0,0-3.93-1.47,5.2,5.2,0,0,0-3.9,1.5A5.34,5.34,0,0,0,135.7,36v18.1h-6.56V25.84h6.56V32A9.34,9.34,0,0,1,139,27.08a8.9,8.9,0,0,1,5.54-1.75,8.16,8.16,0,0,1,6.19,2.46,9,9,0,0,1,2.35,6.48V54.12Z"/><rect class="cls-7" x="160.53" y="25.84" width="6.56" height="28.28"/><path class="cls-7" d="M177.9,14.92a9.31,9.31,0,0,1,6-1.81h3.9v5.32h-2.55a2.83,2.83,0,0,0-2.09.79,2.76,2.76,0,0,0-.79,2v4.58h5.43v5.31h-5.43v23h-6.56v-23H172V25.84h5a15.7,15.7,0,0,1-1.36-6.11,5.85,5.85,0,0,1,2.26-4.81m14.65-1.13h6.84v7.58h-6.84Zm.17,12.05h6.56V54.12h-6.56Z"/><path class="cls-7" d="M206.74,13.11h6.57v19.4a10,10,0,0,1,3.42-5.26,9.32,9.32,0,0,1,5.91-1.92A8.86,8.86,0,0,1,229.37,28a9.62,9.62,0,0,1,2.55,7V45a9.63,9.63,0,0,1-2.55,7,8.9,8.9,0,0,1-6.73,2.66,9.32,9.32,0,0,1-5.91-1.92,10,10,0,0,1-3.42-5.26v6.67h-6.57Zm6.57,30.15A6,6,0,0,0,215,47.7a5.82,5.82,0,0,0,4.35,1.67,5.74,5.74,0,0,0,6.06-6.11V36.7a5.74,5.74,0,0,0-6.06-6.11A5.82,5.82,0,0,0,215,32.26a6,6,0,0,0-1.64,4.44Z"/><path class="cls-7" d="M257.37,52a12.32,12.32,0,0,1-8,2.63,11.93,11.93,0,0,1-8.91-3.42,12.31,12.31,0,0,1-3.37-9V37.77a12.29,12.29,0,0,1,3.37-9,13.16,13.16,0,0,1,17.7,0,12.29,12.29,0,0,1,3.37,9v4.36H243.45V43a5.79,5.79,0,0,0,1.7,4.36A6.17,6.17,0,0,0,249.62,49a6.25,6.25,0,0,0,3.76-1.13,5.35,5.35,0,0,0,2.07-3.06h5.94a11.45,11.45,0,0,1-4,7.16m-1.81-15.3a5.57,5.57,0,0,0-1.64-4.19,6,6,0,0,0-4.36-1.58,6.23,6.23,0,0,0-4.44,1.58,5.52,5.52,0,0,0-1.67,4.19v.68h12.11Z"/><path class="cls-7" d="M285.14,25.55v6.17h-5.43a5.05,5.05,0,0,0-5.37,5.37v17h-6.56V25.84h6.56v6.9a10.27,10.27,0,0,1,3.28-5.26,8.42,8.42,0,0,1,5.54-1.93Z"/><path class="cls-8" d="M168.51,17.58a4.7,4.7,0,1,1-4.69-4.69,4.69,4.69,0,0,1,4.69,4.69"/><path class="cls-6" d="M160.92,74.37H163v10.9a5.7,5.7,0,0,1,1.79-3,4.72,4.72,0,0,1,3.14-1.1,4.59,4.59,0,0,1,3.6,1.58,6.17,6.17,0,0,1,1.38,4.19v4.41a6.14,6.14,0,0,1-1.38,4.19A4.57,4.57,0,0,1,168,97.1a4.72,4.72,0,0,1-3.14-1.1A5.78,5.78,0,0,1,163,93v3.91h-2.11ZM163,90.7A4.74,4.74,0,0,0,164.1,94a3.89,3.89,0,0,0,5.66,0,4.74,4.74,0,0,0,1.07-3.25V87.53a4.73,4.73,0,0,0-1.07-3.24,3.87,3.87,0,0,0-5.66,0A4.73,4.73,0,0,0,163,87.53Z"/><path class="cls-6" d="M179.18,101.6l1.47-4.72h-1.09l-4.44-14V81.36H177l4.24,14.28,4.3-14.28h1.81v1.49L181,103.09h-1.8Z"/><path class="cls-6" d="M207.69,96.88h-2.08V93.09A5.71,5.71,0,0,1,203.9,96,4.31,4.31,0,0,1,201,97.1a4.09,4.09,0,0,1-3.11-1.26,4.63,4.63,0,0,1-1.19-3.31A4.73,4.73,0,0,1,198,89.06a4.61,4.61,0,0,1,3.45-1.34h4.18V86.29a3.09,3.09,0,0,0-.71-2.14,2.38,2.38,0,0,0-1.89-.81h-5.2v-2h5.53a4,4,0,0,1,3.16,1.35,5.18,5.18,0,0,1,1.19,3.58Zm-5.88-7.36a3.16,3.16,0,0,0-2.2.76,2.59,2.59,0,0,0-.84,2,2.69,2.69,0,0,0,.86,2.06,3.21,3.21,0,0,0,2.26.79,3.37,3.37,0,0,0,2.59-1.07,4.59,4.59,0,0,0,1.13-2.87V89.52Z"/><path class="cls-6" d="M221.15,95.84a5.76,5.76,0,0,1-3.93,1.26,6.2,6.2,0,0,1-4.11-1.31,5.41,5.41,0,0,1-1.86-3.63h1.89a3.14,3.14,0,0,0,1.27,2.14,4.45,4.45,0,0,0,2.72.78,4.12,4.12,0,0,0,2.5-.67,2.17,2.17,0,0,0,.9-1.85A1.86,1.86,0,0,0,219.8,91a5.26,5.26,0,0,0-2.36-.86L216,89.89a6.45,6.45,0,0,1-3.37-1.38,3.64,3.64,0,0,1-1-2.78,4.33,4.33,0,0,1,1.33-3.38,5.23,5.23,0,0,1,3.68-1.21,5.66,5.66,0,0,1,3.85,1.27,5.41,5.41,0,0,1,1.73,3.6h-1.91a3.18,3.18,0,0,0-1.12-2.12,3.78,3.78,0,0,0-2.47-.76,3.42,3.42,0,0,0-2.23.65,2.17,2.17,0,0,0-.81,1.8,1.86,1.86,0,0,0,.7,1.52,5.33,5.33,0,0,0,2.32.84l1.45.25a6.69,6.69,0,0,1,3.44,1.39,3.59,3.59,0,0,1,1.07,2.77A4.42,4.42,0,0,1,221.15,95.84Z"/><path class="cls-6" d="M226.06,75.14h2.3v3.23h-2.3Zm.11,6.22h2.1V96.88h-2.1Z"/><path class="cls-6" d="M242.86,96.88h-2.08V93.09A5.77,5.77,0,0,1,239.07,96a4.31,4.31,0,0,1-2.94,1.07A4.08,4.08,0,0,1,233,95.84a4.63,4.63,0,0,1-1.19-3.31,4.76,4.76,0,0,1,1.31-3.47,4.64,4.64,0,0,1,3.45-1.34h4.19V86.29a3.14,3.14,0,0,0-.71-2.14,2.41,2.41,0,0,0-1.89-.81H233v-2h5.53a4,4,0,0,1,3.16,1.35,5.23,5.23,0,0,1,1.19,3.58ZM237,89.52a3.19,3.19,0,0,0-2.21.76,2.62,2.62,0,0,0-.83,2,2.66,2.66,0,0,0,.86,2.06,3.19,3.19,0,0,0,2.26.79,3.33,3.33,0,0,0,2.58-1.07,4.54,4.54,0,0,0,1.14-2.87V89.52Z"/><path class="cls-6" d="M256.6,96.88V86.94a4,4,0,0,0-1-2.81,3.31,3.31,0,0,0-2.56-1.07,3.24,3.24,0,0,0-2.52,1.07,4.08,4.08,0,0,0-1,2.81v9.94h-2.11V81.36h2.11V84.8a5,5,0,0,1,1.66-2.7,4.44,4.44,0,0,1,2.89-1,4.13,4.13,0,0,1,3.29,1.43,5.5,5.5,0,0,1,1.25,3.75V96.88Z"/><path class="cls-6" d="M272.13,95.73a5.87,5.87,0,0,1-8-.46,7.1,7.1,0,0,1-1.62-4.88V87.81a7.13,7.13,0,0,1,1.6-4.84,5.84,5.84,0,0,1,8.49,0,7.08,7.08,0,0,1,1.6,4.84v2.08h-9.63v.81a4.53,4.53,0,0,0,1.06,3.15,3.95,3.95,0,0,0,5.23.39,3.9,3.9,0,0,0,1.32-2.2h1.94A6.38,6.38,0,0,1,272.13,95.73Zm.1-8.26a4.48,4.48,0,0,0-1.06-3.13,3.89,3.89,0,0,0-5.58,0,4.52,4.52,0,0,0-1,3.13v.62h7.69Z"/><path class="cls-6" d="M278.49,83.34h-2.11v-2h2.11V77.94h2.44l-1,3.42h3.92v2H280.6V93.43a1.53,1.53,0,0,0,.36,1.06,1.16,1.16,0,0,0,.93.4h1.94v2h-2.3a2.76,2.76,0,0,1-2.2-.95,3.62,3.62,0,0,1-.84-2.5Z"/></g></g></svg>